<mxfile host="app.diagrams.net" modified="2021-07-23T08:31:03.863Z" agent="5.0 (Windows NT 10.0; Win64; x64) AppleWebKit/537.36 (KHTML, like Gecko) Chrome/91.0.4472.164 Safari/537.36 Edg/91.0.864.71" etag="PZDBzlJuA9ZRylaf17lN" version="14.9.0" type="github">
  <diagram id="bpiBy5JlJ65iy-qLjhrY" name="Page-1">
    <mxGraphModel dx="611" dy="553" grid="1" gridSize="10" guides="1" tooltips="1" connect="1" arrows="1" fold="1" page="1" pageScale="1" pageWidth="827" pageHeight="1169" math="0" shadow="0">
      <root>
        <mxCell id="0" />
        <mxCell id="1" parent="0" />
        <mxCell id="W4srtE4isIsqnUP0LCov-1" value="eyeFunc" style="text;html=1;strokeColor=none;fillColor=none;align=center;verticalAlign=middle;whiteSpace=wrap;rounded=0;" vertex="1" parent="1">
          <mxGeometry y="20" width="60" height="20" as="geometry" />
        </mxCell>
        <mxCell id="W4srtE4isIsqnUP0LCov-8" value="initialize" style="rounded=1;whiteSpace=wrap;html=1;fillColor=#dae8fc;strokeColor=#6c8ebf;" vertex="1" parent="1">
          <mxGeometry y="40" width="80" height="40" as="geometry" />
        </mxCell>
        <mxCell id="W4srtE4isIsqnUP0LCov-15" style="edgeStyle=orthogonalEdgeStyle;rounded=0;orthogonalLoop=1;jettySize=auto;html=1;exitX=0.5;exitY=1;exitDx=0;exitDy=0;entryX=0.5;entryY=0;entryDx=0;entryDy=0;" edge="1" parent="1" source="W4srtE4isIsqnUP0LCov-13" target="W4srtE4isIsqnUP0LCov-14">
          <mxGeometry relative="1" as="geometry" />
        </mxCell>
        <mxCell id="W4srtE4isIsqnUP0LCov-13" value="update入口函数" style="rounded=1;whiteSpace=wrap;html=1;" vertex="1" parent="1">
          <mxGeometry x="40" y="120" width="120" height="40" as="geometry" />
        </mxCell>
        <mxCell id="W4srtE4isIsqnUP0LCov-17" style="edgeStyle=orthogonalEdgeStyle;rounded=0;orthogonalLoop=1;jettySize=auto;html=1;exitX=0.5;exitY=1;exitDx=0;exitDy=0;entryX=0.5;entryY=0;entryDx=0;entryDy=0;startArrow=none;" edge="1" parent="1" source="W4srtE4isIsqnUP0LCov-18" target="W4srtE4isIsqnUP0LCov-16">
          <mxGeometry relative="1" as="geometry" />
        </mxCell>
        <mxCell id="W4srtE4isIsqnUP0LCov-14" value="isStart加载眼动" style="rhombus;whiteSpace=wrap;html=1;" vertex="1" parent="1">
          <mxGeometry x="30" y="200" width="140" height="40" as="geometry" />
        </mxCell>
        <mxCell id="W4srtE4isIsqnUP0LCov-16" value="有无开启追踪" style="rhombus;whiteSpace=wrap;html=1;" vertex="1" parent="1">
          <mxGeometry x="30" y="280" width="140" height="40" as="geometry" />
        </mxCell>
        <mxCell id="W4srtE4isIsqnUP0LCov-18" value="需要加载眼动" style="text;html=1;strokeColor=none;fillColor=none;align=center;verticalAlign=middle;whiteSpace=wrap;rounded=0;" vertex="1" parent="1">
          <mxGeometry x="45" y="250" width="110" height="20" as="geometry" />
        </mxCell>
        <mxCell id="W4srtE4isIsqnUP0LCov-19" value="" style="edgeStyle=orthogonalEdgeStyle;rounded=0;orthogonalLoop=1;jettySize=auto;html=1;exitX=0.5;exitY=1;exitDx=0;exitDy=0;entryX=0.5;entryY=0;entryDx=0;entryDy=0;endArrow=none;" edge="1" parent="1" source="W4srtE4isIsqnUP0LCov-14" target="W4srtE4isIsqnUP0LCov-18">
          <mxGeometry relative="1" as="geometry">
            <mxPoint x="100" y="240" as="sourcePoint" />
            <mxPoint x="100" y="280" as="targetPoint" />
          </mxGeometry>
        </mxCell>
      </root>
    </mxGraphModel>
  </diagram>
</mxfile>
